<mxfile host="Electron" agent="Mozilla/5.0 (Windows NT 10.0; Win64; x64) AppleWebKit/537.36 (KHTML, like Gecko) draw.io/27.0.5 Chrome/134.0.6998.205 Electron/35.3.0 Safari/537.36" version="27.0.5">
  <diagram name="PÃ¡gina-1" id="5CUS-UwlEjqFilKVYFSE">
    <mxGraphModel dx="2159" dy="772" grid="1" gridSize="10" guides="1" tooltips="1" connect="1" arrows="1" fold="1" page="1" pageScale="1" pageWidth="827" pageHeight="1169" math="0" shadow="0">
      <root>
        <mxCell id="0" />
        <mxCell id="1" parent="0" />
        <mxCell id="f335If5Slb0y0WOBTW45-42" style="edgeStyle=orthogonalEdgeStyle;rounded=0;orthogonalLoop=1;jettySize=auto;html=1;entryX=0;entryY=0.5;entryDx=0;entryDy=0;startArrow=ERone;startFill=0;endArrow=ERmany;endFill=0;" edge="1" parent="1" source="f335If5Slb0y0WOBTW45-3" target="f335If5Slb0y0WOBTW45-11">
          <mxGeometry relative="1" as="geometry" />
        </mxCell>
        <mxCell id="f335If5Slb0y0WOBTW45-3" value="MateriasPrimas" style="rounded=0;whiteSpace=wrap;html=1;" vertex="1" parent="1">
          <mxGeometry x="80" y="120" width="120" height="60" as="geometry" />
        </mxCell>
        <mxCell id="f335If5Slb0y0WOBTW45-46" style="edgeStyle=orthogonalEdgeStyle;rounded=0;orthogonalLoop=1;jettySize=auto;html=1;entryX=0;entryY=0.5;entryDx=0;entryDy=0;startArrow=ERone;startFill=0;endArrow=ERmany;endFill=0;" edge="1" parent="1" source="f335If5Slb0y0WOBTW45-7" target="f335If5Slb0y0WOBTW45-19">
          <mxGeometry relative="1" as="geometry" />
        </mxCell>
        <mxCell id="f335If5Slb0y0WOBTW45-7" value="Proveedor" style="rounded=0;whiteSpace=wrap;html=1;" vertex="1" parent="1">
          <mxGeometry x="70" y="520" width="120" height="60" as="geometry" />
        </mxCell>
        <mxCell id="f335If5Slb0y0WOBTW45-44" style="edgeStyle=orthogonalEdgeStyle;rounded=0;orthogonalLoop=1;jettySize=auto;html=1;entryX=0.5;entryY=0;entryDx=0;entryDy=0;startArrow=ERmany;startFill=0;endArrow=ERone;endFill=0;" edge="1" parent="1" source="f335If5Slb0y0WOBTW45-8" target="f335If5Slb0y0WOBTW45-7">
          <mxGeometry relative="1" as="geometry">
            <Array as="points">
              <mxPoint x="130" y="430" />
              <mxPoint x="130" y="430" />
            </Array>
          </mxGeometry>
        </mxCell>
        <mxCell id="f335If5Slb0y0WOBTW45-8" value="ProveedorxMateriaPrima" style="rounded=0;whiteSpace=wrap;html=1;" vertex="1" parent="1">
          <mxGeometry x="70" y="320" width="160" height="60" as="geometry" />
        </mxCell>
        <mxCell id="f335If5Slb0y0WOBTW45-49" style="edgeStyle=orthogonalEdgeStyle;rounded=0;orthogonalLoop=1;jettySize=auto;html=1;entryX=1;entryY=0.5;entryDx=0;entryDy=0;startArrow=ERone;startFill=0;endArrow=ERmany;endFill=0;" edge="1" parent="1" source="f335If5Slb0y0WOBTW45-10" target="f335If5Slb0y0WOBTW45-11">
          <mxGeometry relative="1" as="geometry" />
        </mxCell>
        <mxCell id="f335If5Slb0y0WOBTW45-50" style="edgeStyle=orthogonalEdgeStyle;rounded=0;orthogonalLoop=1;jettySize=auto;html=1;startArrow=ERone;startFill=0;endArrow=ERmany;endFill=0;" edge="1" parent="1" source="f335If5Slb0y0WOBTW45-10" target="f335If5Slb0y0WOBTW45-18">
          <mxGeometry relative="1" as="geometry" />
        </mxCell>
        <mxCell id="f335If5Slb0y0WOBTW45-10" value="Producto" style="rounded=0;whiteSpace=wrap;html=1;" vertex="1" parent="1">
          <mxGeometry x="560" y="120" width="120" height="60" as="geometry" />
        </mxCell>
        <mxCell id="f335If5Slb0y0WOBTW45-11" value="Formula" style="rounded=0;whiteSpace=wrap;html=1;" vertex="1" parent="1">
          <mxGeometry x="320" y="120" width="120" height="60" as="geometry" />
        </mxCell>
        <mxCell id="f335If5Slb0y0WOBTW45-12" value="Cliente" style="rounded=0;whiteSpace=wrap;html=1;" vertex="1" parent="1">
          <mxGeometry x="580" y="520" width="120" height="60" as="geometry" />
        </mxCell>
        <mxCell id="f335If5Slb0y0WOBTW45-13" value="TipoCliente" style="rounded=0;whiteSpace=wrap;html=1;" vertex="1" parent="1">
          <mxGeometry x="570" y="650" width="120" height="40" as="geometry" />
        </mxCell>
        <mxCell id="f335If5Slb0y0WOBTW45-52" style="edgeStyle=orthogonalEdgeStyle;rounded=0;orthogonalLoop=1;jettySize=auto;html=1;entryX=0.5;entryY=0;entryDx=0;entryDy=0;startArrow=ERmany;startFill=0;endArrow=ERone;endFill=0;" edge="1" parent="1" source="f335If5Slb0y0WOBTW45-17" target="f335If5Slb0y0WOBTW45-12">
          <mxGeometry relative="1" as="geometry" />
        </mxCell>
        <mxCell id="f335If5Slb0y0WOBTW45-17" value="Venta" style="rounded=0;whiteSpace=wrap;html=1;" vertex="1" parent="1">
          <mxGeometry x="560" y="390" width="160" height="60" as="geometry" />
        </mxCell>
        <mxCell id="f335If5Slb0y0WOBTW45-18" value="DetalleVenta" style="rounded=0;whiteSpace=wrap;html=1;" vertex="1" parent="1">
          <mxGeometry x="540" y="260" width="160" height="60" as="geometry" />
        </mxCell>
        <mxCell id="f335If5Slb0y0WOBTW45-47" style="edgeStyle=orthogonalEdgeStyle;rounded=0;orthogonalLoop=1;jettySize=auto;html=1;entryX=0.5;entryY=1;entryDx=0;entryDy=0;startArrow=ERone;startFill=0;endArrow=ERmany;endFill=0;" edge="1" parent="1" source="f335If5Slb0y0WOBTW45-19" target="f335If5Slb0y0WOBTW45-20">
          <mxGeometry relative="1" as="geometry" />
        </mxCell>
        <mxCell id="f335If5Slb0y0WOBTW45-19" value="Pedido" style="rounded=0;whiteSpace=wrap;html=1;" vertex="1" parent="1">
          <mxGeometry x="300" y="520" width="160" height="60" as="geometry" />
        </mxCell>
        <mxCell id="f335If5Slb0y0WOBTW45-54" style="edgeStyle=orthogonalEdgeStyle;rounded=0;orthogonalLoop=1;jettySize=auto;html=1;entryX=1;entryY=0.75;entryDx=0;entryDy=0;startArrow=ERmany;startFill=0;endArrow=ERone;endFill=0;" edge="1" parent="1" source="f335If5Slb0y0WOBTW45-20" target="f335If5Slb0y0WOBTW45-3">
          <mxGeometry relative="1" as="geometry" />
        </mxCell>
        <mxCell id="f335If5Slb0y0WOBTW45-20" value="DetallePedido" style="rounded=0;whiteSpace=wrap;html=1;" vertex="1" parent="1">
          <mxGeometry x="300" y="320" width="160" height="60" as="geometry" />
        </mxCell>
        <mxCell id="f335If5Slb0y0WOBTW45-25" value="&lt;u&gt;CodMateriPrima_MP&lt;/u&gt;" style="text;html=1;align=center;verticalAlign=middle;whiteSpace=wrap;rounded=0;" vertex="1" parent="1">
          <mxGeometry x="80" y="80" width="140" height="30" as="geometry" />
        </mxCell>
        <mxCell id="f335If5Slb0y0WOBTW45-26" value="&lt;u&gt;CodProducto_P&lt;/u&gt;" style="text;html=1;align=center;verticalAlign=middle;whiteSpace=wrap;rounded=0;" vertex="1" parent="1">
          <mxGeometry x="560" y="80" width="140" height="30" as="geometry" />
        </mxCell>
        <mxCell id="f335If5Slb0y0WOBTW45-30" value="&lt;div style=&quot;&quot;&gt;&lt;u style=&quot;background-color: transparent; color: light-dark(rgb(0, 0, 0), rgb(255, 255, 255));&quot;&gt;CodMateriPrima_F(FK)&lt;/u&gt;&lt;/div&gt;&lt;div&gt;&lt;u&gt;CodProducto_F (FK)&lt;/u&gt;&lt;/div&gt;" style="text;html=1;align=left;verticalAlign=middle;whiteSpace=wrap;rounded=0;" vertex="1" parent="1">
          <mxGeometry x="320" y="70" width="140" height="30" as="geometry" />
        </mxCell>
        <mxCell id="f335If5Slb0y0WOBTW45-31" value="&lt;u&gt;CodProveedor_PV&lt;/u&gt;" style="text;html=1;align=center;verticalAlign=middle;whiteSpace=wrap;rounded=0;" vertex="1" parent="1">
          <mxGeometry x="60" y="585" width="140" height="30" as="geometry" />
        </mxCell>
        <mxCell id="f335If5Slb0y0WOBTW45-32" value="&lt;u&gt;CodMateriPrima_PXM (FK)&lt;/u&gt;&lt;div&gt;&lt;u&gt;CodProveedor_PXM (FK)&lt;/u&gt;&lt;/div&gt;" style="text;html=1;align=left;verticalAlign=middle;whiteSpace=wrap;rounded=0;" vertex="1" parent="1">
          <mxGeometry x="-80" y="335" width="170" height="30" as="geometry" />
        </mxCell>
        <mxCell id="f335If5Slb0y0WOBTW45-33" value="&lt;div&gt;&lt;u&gt;CodPedido_PD&lt;/u&gt;&lt;/div&gt;CodProveedor_PD (FK)" style="text;html=1;align=left;verticalAlign=middle;whiteSpace=wrap;rounded=0;" vertex="1" parent="1">
          <mxGeometry x="300" y="590" width="140" height="30" as="geometry" />
        </mxCell>
        <mxCell id="f335If5Slb0y0WOBTW45-34" value="&lt;div style=&quot;text-align: left;&quot;&gt;&lt;u&gt;CodPedido_DP(FK)&lt;/u&gt;&lt;/div&gt;&lt;u&gt;CodMateriPrima_DP(FK)&lt;/u&gt;" style="text;html=1;align=center;verticalAlign=middle;whiteSpace=wrap;rounded=0;" vertex="1" parent="1">
          <mxGeometry x="320" y="275" width="140" height="30" as="geometry" />
        </mxCell>
        <mxCell id="f335If5Slb0y0WOBTW45-35" value="&lt;u&gt;IdTipoCliente_TC&lt;/u&gt;" style="text;html=1;align=left;verticalAlign=middle;whiteSpace=wrap;rounded=0;" vertex="1" parent="1">
          <mxGeometry x="700" y="650" width="140" height="30" as="geometry" />
        </mxCell>
        <mxCell id="f335If5Slb0y0WOBTW45-36" value="&lt;u&gt;CodCliente_C&lt;br&gt;&lt;/u&gt;&lt;div&gt;IdTipoCliente_C(FK)&lt;/div&gt;" style="text;html=1;align=left;verticalAlign=middle;whiteSpace=wrap;rounded=0;" vertex="1" parent="1">
          <mxGeometry x="710" y="530" width="140" height="40" as="geometry" />
        </mxCell>
        <mxCell id="f335If5Slb0y0WOBTW45-38" value="&lt;div&gt;&lt;u&gt;CodVenta_V&lt;/u&gt;&lt;/div&gt;CodCliente_V(FK)" style="text;html=1;align=left;verticalAlign=middle;whiteSpace=wrap;rounded=0;" vertex="1" parent="1">
          <mxGeometry x="730" y="390" width="140" height="40" as="geometry" />
        </mxCell>
        <mxCell id="f335If5Slb0y0WOBTW45-40" value="&lt;div&gt;&lt;u&gt;CodVenta_DV(FK)&lt;/u&gt;&lt;/div&gt;&lt;u&gt;CodProducto_DV(FK&lt;/u&gt;)" style="text;html=1;align=left;verticalAlign=middle;whiteSpace=wrap;rounded=0;" vertex="1" parent="1">
          <mxGeometry x="710" y="270" width="140" height="40" as="geometry" />
        </mxCell>
        <mxCell id="f335If5Slb0y0WOBTW45-43" style="edgeStyle=orthogonalEdgeStyle;rounded=0;orthogonalLoop=1;jettySize=auto;html=1;entryX=0.438;entryY=0;entryDx=0;entryDy=0;entryPerimeter=0;startArrow=ERone;startFill=0;endArrow=ERoneToMany;endFill=0;" edge="1" parent="1" source="f335If5Slb0y0WOBTW45-3" target="f335If5Slb0y0WOBTW45-8">
          <mxGeometry relative="1" as="geometry" />
        </mxCell>
        <mxCell id="f335If5Slb0y0WOBTW45-51" style="edgeStyle=orthogonalEdgeStyle;rounded=0;orthogonalLoop=1;jettySize=auto;html=1;entryX=0.369;entryY=-0.001;entryDx=0;entryDy=0;entryPerimeter=0;startArrow=ERmany;startFill=0;endArrow=ERone;endFill=0;" edge="1" parent="1" source="f335If5Slb0y0WOBTW45-18" target="f335If5Slb0y0WOBTW45-17">
          <mxGeometry relative="1" as="geometry" />
        </mxCell>
        <mxCell id="f335If5Slb0y0WOBTW45-53" style="edgeStyle=orthogonalEdgeStyle;rounded=0;orthogonalLoop=1;jettySize=auto;html=1;entryX=0.589;entryY=-0.059;entryDx=0;entryDy=0;entryPerimeter=0;startArrow=ERmany;startFill=0;endArrow=ERone;endFill=0;" edge="1" parent="1" source="f335If5Slb0y0WOBTW45-12" target="f335If5Slb0y0WOBTW45-13">
          <mxGeometry relative="1" as="geometry" />
        </mxCell>
        <mxCell id="f335If5Slb0y0WOBTW45-56" value="" style="endArrow=none;html=1;rounded=0;strokeWidth=9;" edge="1" parent="1">
          <mxGeometry width="50" height="50" relative="1" as="geometry">
            <mxPoint x="-70" y="750" as="sourcePoint" />
            <mxPoint x="830" y="750" as="targetPoint" />
          </mxGeometry>
        </mxCell>
        <mxCell id="f335If5Slb0y0WOBTW45-57" value="&lt;b&gt;&lt;font style=&quot;font-size: 18px;&quot;&gt;DICCIONARIO DE DATOS&lt;/font&gt;&lt;/b&gt;" style="text;html=1;align=center;verticalAlign=middle;resizable=0;points=[];autosize=1;strokeColor=none;fillColor=none;" vertex="1" parent="1">
          <mxGeometry x="270" y="775" width="240" height="40" as="geometry" />
        </mxCell>
        <mxCell id="f335If5Slb0y0WOBTW45-59" value="MateriasPrimas" style="rounded=0;whiteSpace=wrap;html=1;" vertex="1" parent="1">
          <mxGeometry x="-110" y="835" width="120" height="40" as="geometry" />
        </mxCell>
        <mxCell id="f335If5Slb0y0WOBTW45-61" value="Proveedor" style="rounded=0;whiteSpace=wrap;html=1;" vertex="1" parent="1">
          <mxGeometry x="50" y="830" width="120" height="45" as="geometry" />
        </mxCell>
        <mxCell id="f335If5Slb0y0WOBTW45-62" value="ProveedorxMateriaPrima" style="rounded=0;whiteSpace=wrap;html=1;" vertex="1" parent="1">
          <mxGeometry x="210" y="830" width="160" height="45" as="geometry" />
        </mxCell>
        <mxCell id="f335If5Slb0y0WOBTW45-65" value="&lt;h4 style=&quot;text-align: left;&quot; data-end=&quot;218&quot; data-start=&quot;194&quot;&gt;&lt;span style=&quot;background-color: transparent; color: light-dark(rgb(0, 0, 0), rgb(255, 255, 255));&quot; data-end=&quot;245&quot; data-start=&quot;221&quot;&gt;&lt;span style=&quot;&quot; data-end=&quot;243&quot; data-start=&quot;223&quot;&gt;&lt;u style=&quot;&quot;&gt;CodMateriaPrima_MP&lt;/u&gt;&lt;/span&gt;&lt;/span&gt;&lt;/h4&gt;&lt;h4 style=&quot;text-align: left;&quot; data-end=&quot;218&quot; data-start=&quot;194&quot;&gt;&lt;span style=&quot;background-color: transparent; color: light-dark(rgb(0, 0, 0), rgb(255, 255, 255)); font-weight: normal;&quot;&gt;Desc_MP&lt;/span&gt;&lt;/h4&gt;&lt;h4 style=&quot;text-align: left;&quot; data-end=&quot;218&quot; data-start=&quot;194&quot;&gt;&lt;span style=&quot;background-color: transparent; color: light-dark(rgb(0, 0, 0), rgb(255, 255, 255)); font-weight: normal;&quot;&gt;Stock_MP&lt;/span&gt;&lt;/h4&gt;&lt;h4 style=&quot;text-align: left;&quot; data-end=&quot;218&quot; data-start=&quot;194&quot;&gt;&lt;span style=&quot;background-color: transparent; color: light-dark(rgb(0, 0, 0), rgb(255, 255, 255)); font-weight: normal;&quot;&gt;UnidadDeMedida_MP&lt;/span&gt;&lt;/h4&gt;&lt;div style=&quot;text-align: left;&quot;&gt;PrecioUnitario_MP&lt;/div&gt;" style="text;html=1;align=center;verticalAlign=middle;resizable=0;points=[];autosize=1;strokeColor=none;fillColor=none;" vertex="1" parent="1">
          <mxGeometry x="-125" y="865" width="150" height="170" as="geometry" />
        </mxCell>
        <mxCell id="f335If5Slb0y0WOBTW45-66" value="&lt;h4 style=&quot;text-align: left;&quot; data-end=&quot;218&quot; data-start=&quot;194&quot;&gt;&lt;span style=&quot;color: rgba(0, 0, 0, 0); font-family: monospace; font-size: 0px; font-weight: 400;&quot;&gt;%3CmxGraphModel%3E%3Croot%3E%3CmxCell%20id%3D%220%22%2F%3E%3CmxCell%20id%3D%221%22%20parent%3D%220%22%2F%3E%3CmxCell%20id%3D%222%22%20value%3D%22%26lt%3Bh4%20style%3D%26quot%3Btext-align%3A%20left%3B%26quot%3B%20data-end%3D%26quot%3B218%26quot%3B%20data-start%3D%26quot%3B194%26quot%3B%26gt%3B%26lt%3Bspan%20style%3D%26quot%3Bbackground-color%3A%20transparent%3B%20color%3A%20light-dark(rgb(0%2C%200%2C%200)%2C%20rgb(255%2C%20255%2C%20255))%3B%26quot%3B%20data-end%3D%26quot%3B245%26quot%3B%20data-start%3D%26quot%3B221%26quot%3B%26gt%3B%26lt%3Bspan%20style%3D%26quot%3B%26quot%3B%20data-end%3D%26quot%3B243%26quot%3B%20data-start%3D%26quot%3B223%26quot%3B%26gt%3B%26lt%3Bu%20style%3D%26quot%3B%26quot%3B%26gt%3BCodMateriaPrima_MP%26lt%3B%2Fu%26gt%3B%26lt%3B%2Fspan%26gt%3B%26lt%3B%2Fspan%26gt%3B%26lt%3B%2Fh4%26gt%3B%26lt%3Bh4%20style%3D%26quot%3Btext-align%3A%20left%3B%26quot%3B%20data-end%3D%26quot%3B218%26quot%3B%20data-start%3D%26quot%3B194%26quot%3B%26gt%3B%26lt%3Bspan%20style%3D%26quot%3Bbackground-color%3A%20transparent%3B%20color%3A%20light-dark(rgb(0%2C%200%2C%200)%2C%20rgb(255%2C%20255%2C%20255))%3B%20font-weight%3A%20normal%3B%26quot%3B%26gt%3BDesc_MP%26lt%3B%2Fspan%26gt%3B%26lt%3B%2Fh4%26gt%3B%26lt%3Bh4%20style%3D%26quot%3Btext-align%3A%20left%3B%26quot%3B%20data-end%3D%26quot%3B218%26quot%3B%20data-start%3D%26quot%3B194%26quot%3B%26gt%3B%26lt%3Bspan%20style%3D%26quot%3Bbackground-color%3A%20transparent%3B%20color%3A%20light-dark(rgb(0%2C%200%2C%200)%2C%20rgb(255%2C%20255%2C%20255))%3B%20font-weight%3A%20normal%3B%26quot%3B%26gt%3BStock_MP%26lt%3B%2Fspan%26gt%3B%26lt%3B%2Fh4%26gt%3B%26lt%3Bh4%20style%3D%26quot%3Btext-align%3A%20left%3B%26quot%3B%20data-end%3D%26quot%3B218%26quot%3B%20data-start%3D%26quot%3B194%26quot%3B%26gt%3B%26lt%3Bspan%20style%3D%26quot%3Bbackground-color%3A%20transparent%3B%20color%3A%20light-dark(rgb(0%2C%200%2C%200)%2C%20rgb(255%2C%20255%2C%20255))%3B%20font-weight%3A%20normal%3B%26quot%3B%26gt%3BUnidadDeMedida_MP%26lt%3B%2Fspan%26gt%3B%26lt%3B%2Fh4%26gt%3B%22%20style%3D%22text%3Bhtml%3D1%3Balign%3Dcenter%3BverticalAlign%3Dmiddle%3Bresizable%3D0%3Bpoints%3D%5B%5D%3Bautosize%3D1%3BstrokeColor%3Dnone%3BfillColor%3Dnone%3B%22%20vertex%3D%221%22%20parent%3D%221%22%3E%3CmxGeometry%20x%3D%22-125%22%20y%3D%22875%22%20width%3D%22150%22%20height%3D%22150%22%20as%3D%22geometry%22%2F%3E%3C%2FmxCell%3E%3C%2Froot%3E%3C%2FmxGraphModel%3E&lt;/span&gt;&lt;/h4&gt;" style="text;html=1;align=center;verticalAlign=middle;resizable=0;points=[];autosize=1;strokeColor=none;fillColor=none;" vertex="1" parent="1">
          <mxGeometry x="105" y="920" width="20" height="60" as="geometry" />
        </mxCell>
        <mxCell id="f335If5Slb0y0WOBTW45-67" value="&lt;span style=&quot;color: rgba(0, 0, 0, 0); font-family: monospace; font-size: 0px; text-align: start;&quot;&gt;%3CmxGraphModel%3E%3Croot%3E%3CmxCell%20id%3D%220%22%2F%3E%3CmxCell%20id%3D%221%22%20parent%3D%220%22%2F%3E%3CmxCell%20id%3D%222%22%20value%3D%22%26lt%3Bh4%20style%3D%26quot%3Btext-align%3A%20left%3B%26quot%3B%20data-end%3D%26quot%3B218%26quot%3B%20data-start%3D%26quot%3B194%26quot%3B%26gt%3B%26lt%3Bspan%20style%3D%26quot%3Bbackground-color%3A%20transparent%3B%20color%3A%20light-dark(rgb(0%2C%200%2C%200)%2C%20rgb(255%2C%20255%2C%20255))%3B%26quot%3B%20data-end%3D%26quot%3B245%26quot%3B%20data-start%3D%26quot%3B221%26quot%3B%26gt%3B%26lt%3Bspan%20style%3D%26quot%3B%26quot%3B%20data-end%3D%26quot%3B243%26quot%3B%20data-start%3D%26quot%3B223%26quot%3B%26gt%3B%26lt%3Bu%20style%3D%26quot%3B%26quot%3B%26gt%3BCodMateriaPrima_MP%26lt%3B%2Fu%26gt%3B%26lt%3B%2Fspan%26gt%3B%26lt%3B%2Fspan%26gt%3B%26lt%3B%2Fh4%26gt%3B%26lt%3Bh4%20style%3D%26quot%3Btext-align%3A%20left%3B%26quot%3B%20data-end%3D%26quot%3B218%26quot%3B%20data-start%3D%26quot%3B194%26quot%3B%26gt%3B%26lt%3Bspan%20style%3D%26quot%3Bbackground-color%3A%20transparent%3B%20color%3A%20light-dark(rgb(0%2C%200%2C%200)%2C%20rgb(255%2C%20255%2C%20255))%3B%20font-weight%3A%20normal%3B%26quot%3B%26gt%3BDesc_MP%26lt%3B%2Fspan%26gt%3B%26lt%3B%2Fh4%26gt%3B%26lt%3Bh4%20style%3D%26quot%3Btext-align%3A%20left%3B%26quot%3B%20data-end%3D%26quot%3B218%26quot%3B%20data-start%3D%26quot%3B194%26quot%3B%26gt%3B%26lt%3Bspan%20style%3D%26quot%3Bbackground-color%3A%20transparent%3B%20color%3A%20light-dark(rgb(0%2C%200%2C%200)%2C%20rgb(255%2C%20255%2C%20255))%3B%20font-weight%3A%20normal%3B%26quot%3B%26gt%3BStock_MP%26lt%3B%2Fspan%26gt%3B%26lt%3B%2Fh4%26gt%3B%26lt%3Bh4%20style%3D%26quot%3Btext-align%3A%20left%3B%26quot%3B%20data-end%3D%26quot%3B218%26quot%3B%20data-start%3D%26quot%3B194%26quot%3B%26gt%3B%26lt%3Bspan%20style%3D%26quot%3Bbackground-color%3A%20transparent%3B%20color%3A%20light-dark(rgb(0%2C%200%2C%200)%2C%20rgb(255%2C%20255%2C%20255))%3B%20font-weight%3A%20normal%3B%26quot%3B%26gt%3BUnidadDeMedida_MP%26lt%3B%2Fspan%26gt%3B%26lt%3B%2Fh4%26gt%3B%22%20style%3D%22text%3Bhtml%3D1%3Balign%3Dcenter%3BverticalAlign%3Dmiddle%3Bresizable%3D0%3Bpoints%3D%5B%5D%3Bautosize%3D1%3BstrokeColor%3Dnone%3BfillColor%3Dnone%3B%22%20vertex%3D%221%22%20parent%3D%221%22%3E%3CmxGeometry%20x%3D%22-125%22%20y%3D%22875%22%20width%3D%22150%22%20height%3D%22150%22%20as%3D%22geometry%22%2F%3E%3C%2FmxCell%3E%3C%2Froot%3E%3C%2FmxGraphModel%3E&lt;/span&gt;" style="text;html=1;align=center;verticalAlign=middle;resizable=0;points=[];autosize=1;strokeColor=none;fillColor=none;" vertex="1" parent="1">
          <mxGeometry x="91" y="898" width="20" height="30" as="geometry" />
        </mxCell>
        <mxCell id="f335If5Slb0y0WOBTW45-69" value="&lt;h4 style=&quot;&quot; data-end=&quot;218&quot; data-start=&quot;194&quot;&gt;&lt;span style=&quot;background-color: transparent; color: light-dark(rgb(0, 0, 0), rgb(255, 255, 255));&quot; data-end=&quot;245&quot; data-start=&quot;221&quot;&gt;&lt;span style=&quot;&quot; data-end=&quot;243&quot; data-start=&quot;223&quot;&gt;&lt;u style=&quot;&quot;&gt;CodProveedor_PV&lt;/u&gt;&lt;/span&gt;&lt;/span&gt;&lt;/h4&gt;&lt;h4 style=&quot;&quot; data-end=&quot;218&quot; data-start=&quot;194&quot;&gt;&lt;span style=&quot;font-weight: 400;&quot;&gt;Nombre_PV&lt;/span&gt;&lt;/h4&gt;&lt;h4 style=&quot;&quot; data-end=&quot;218&quot; data-start=&quot;194&quot;&gt;&lt;span style=&quot;font-weight: 400;&quot;&gt;Domicilio_PV&lt;/span&gt;&lt;/h4&gt;&lt;h4 style=&quot;&quot; data-end=&quot;218&quot; data-start=&quot;194&quot;&gt;&lt;span style=&quot;font-weight: 400;&quot;&gt;Telefono_PV&lt;/span&gt;&lt;/h4&gt;&lt;div&gt;&lt;span style=&quot;font-weight: 400;&quot;&gt;Contacto_PV&lt;/span&gt;&lt;/div&gt;" style="text;html=1;align=left;verticalAlign=middle;resizable=0;points=[];autosize=1;strokeColor=none;fillColor=none;" vertex="1" parent="1">
          <mxGeometry x="45" y="875" width="130" height="170" as="geometry" />
        </mxCell>
        <mxCell id="f335If5Slb0y0WOBTW45-70" value="&lt;h4 style=&quot;text-align: left;&quot; data-end=&quot;218&quot; data-start=&quot;194&quot;&gt;&lt;span style=&quot;background-color: transparent; color: light-dark(rgb(0, 0, 0), rgb(255, 255, 255));&quot; data-end=&quot;245&quot; data-start=&quot;221&quot;&gt;&lt;span style=&quot;&quot; data-end=&quot;243&quot; data-start=&quot;223&quot;&gt;&lt;u style=&quot;&quot;&gt;CodProveedor_PXM&lt;/u&gt;&lt;/span&gt;&lt;/span&gt;&lt;/h4&gt;&lt;h4 style=&quot;text-align: left;&quot; data-end=&quot;218&quot; data-start=&quot;194&quot;&gt;&lt;span style=&quot;background-color: transparent; color: light-dark(rgb(0, 0, 0), rgb(255, 255, 255));&quot; data-end=&quot;245&quot; data-start=&quot;221&quot;&gt;&lt;span style=&quot;&quot; data-end=&quot;243&quot; data-start=&quot;223&quot;&gt;&lt;u style=&quot;&quot;&gt;CodMateriaPrima_PXM&lt;/u&gt;&lt;/span&gt;&lt;/span&gt;&lt;/h4&gt;" style="text;html=1;align=center;verticalAlign=middle;resizable=0;points=[];autosize=1;strokeColor=none;fillColor=none;" vertex="1" parent="1">
          <mxGeometry x="200" y="875" width="150" height="90" as="geometry" />
        </mxCell>
        <mxCell id="f335If5Slb0y0WOBTW45-71" value="Producto" style="rounded=0;whiteSpace=wrap;html=1;" vertex="1" parent="1">
          <mxGeometry x="414" y="830" width="120" height="45" as="geometry" />
        </mxCell>
        <mxCell id="f335If5Slb0y0WOBTW45-72" value="Formula" style="rounded=0;whiteSpace=wrap;html=1;" vertex="1" parent="1">
          <mxGeometry x="590" y="828.75" width="120" height="52.5" as="geometry" />
        </mxCell>
        <mxCell id="f335If5Slb0y0WOBTW45-73" value="&lt;h4 style=&quot;text-align: left;&quot; data-end=&quot;218&quot; data-start=&quot;194&quot;&gt;&lt;span style=&quot;background-color: transparent; color: light-dark(rgb(0, 0, 0), rgb(255, 255, 255));&quot; data-end=&quot;245&quot; data-start=&quot;221&quot;&gt;&lt;span style=&quot;&quot; data-end=&quot;243&quot; data-start=&quot;223&quot;&gt;&lt;u style=&quot;&quot;&gt;CodProducto_P&lt;/u&gt;&lt;/span&gt;&lt;/span&gt;&lt;/h4&gt;&lt;h4 style=&quot;text-align: left;&quot; data-end=&quot;218&quot; data-start=&quot;194&quot;&gt;&lt;span style=&quot;background-color: transparent; color: light-dark(rgb(0, 0, 0), rgb(255, 255, 255)); font-weight: normal;&quot;&gt;Desc_P&lt;/span&gt;&lt;/h4&gt;&lt;h4 style=&quot;text-align: left;&quot; data-end=&quot;218&quot; data-start=&quot;194&quot;&gt;&lt;span style=&quot;background-color: transparent; color: light-dark(rgb(0, 0, 0), rgb(255, 255, 255)); font-weight: normal;&quot;&gt;Stock_P&lt;/span&gt;&lt;/h4&gt;&lt;h4 style=&quot;text-align: left;&quot; data-end=&quot;218&quot; data-start=&quot;194&quot;&gt;&lt;span style=&quot;background-color: transparent; color: light-dark(rgb(0, 0, 0), rgb(255, 255, 255)); font-weight: normal;&quot;&gt;PrecioUnitario_P&lt;/span&gt;&lt;/h4&gt;" style="text;html=1;align=center;verticalAlign=middle;resizable=0;points=[];autosize=1;strokeColor=none;fillColor=none;" vertex="1" parent="1">
          <mxGeometry x="410" y="875" width="110" height="150" as="geometry" />
        </mxCell>
        <mxCell id="f335If5Slb0y0WOBTW45-74" value="&lt;h4 style=&quot;&quot; data-end=&quot;218&quot; data-start=&quot;194&quot;&gt;&lt;span style=&quot;background-color: transparent; color: light-dark(rgb(0, 0, 0), rgb(255, 255, 255));&quot; data-end=&quot;245&quot; data-start=&quot;221&quot;&gt;&lt;span style=&quot;&quot; data-end=&quot;243&quot; data-start=&quot;223&quot;&gt;&lt;u style=&quot;&quot;&gt;CodProducto_P&lt;/u&gt;&lt;/span&gt;&lt;/span&gt;&lt;/h4&gt;&lt;h4 style=&quot;&quot; data-end=&quot;218&quot; data-start=&quot;194&quot;&gt;&lt;span style=&quot;background-color: transparent; color: light-dark(rgb(0, 0, 0), rgb(255, 255, 255));&quot; data-end=&quot;245&quot; data-start=&quot;221&quot;&gt;&lt;span data-end=&quot;243&quot; data-start=&quot;223&quot;&gt;&lt;u&gt;CodMateriaPrima_MP&lt;/u&gt;&lt;/span&gt;&lt;/span&gt;&lt;/h4&gt;&lt;div&gt;&lt;span style=&quot;background-color: transparent; color: light-dark(rgb(0, 0, 0), rgb(255, 255, 255));&quot; data-end=&quot;245&quot; data-start=&quot;221&quot;&gt;&lt;span data-end=&quot;243&quot; data-start=&quot;223&quot;&gt;CantidadAguaMineral&lt;/span&gt;&lt;/span&gt;&lt;/div&gt;" style="text;html=1;align=left;verticalAlign=middle;resizable=0;points=[];autosize=1;strokeColor=none;fillColor=none;" vertex="1" parent="1">
          <mxGeometry x="580" y="880" width="150" height="100" as="geometry" />
        </mxCell>
        <mxCell id="f335If5Slb0y0WOBTW45-76" value="Pedido" style="rounded=0;whiteSpace=wrap;html=1;" vertex="1" parent="1">
          <mxGeometry x="145" y="1120" width="125" height="40" as="geometry" />
        </mxCell>
        <mxCell id="f335If5Slb0y0WOBTW45-77" value="DetallePedido" style="rounded=0;whiteSpace=wrap;html=1;" vertex="1" parent="1">
          <mxGeometry x="315" y="1120" width="130" height="40" as="geometry" />
        </mxCell>
        <mxCell id="f335If5Slb0y0WOBTW45-79" value="Venta" style="rounded=0;whiteSpace=wrap;html=1;" vertex="1" parent="1">
          <mxGeometry x="500" y="1120" width="105" height="40" as="geometry" />
        </mxCell>
        <mxCell id="f335If5Slb0y0WOBTW45-81" value="DetalleVenta" style="rounded=0;whiteSpace=wrap;html=1;" vertex="1" parent="1">
          <mxGeometry x="670" y="1120" width="110" height="40" as="geometry" />
        </mxCell>
        <mxCell id="f335If5Slb0y0WOBTW45-84" value="Cliente" style="rounded=0;whiteSpace=wrap;html=1;" vertex="1" parent="1">
          <mxGeometry x="-125" y="1120" width="90" height="40" as="geometry" />
        </mxCell>
        <mxCell id="f335If5Slb0y0WOBTW45-85" value="TipoCliente" style="rounded=0;whiteSpace=wrap;html=1;" vertex="1" parent="1">
          <mxGeometry x="5" y="1120" width="105" height="40" as="geometry" />
        </mxCell>
        <mxCell id="f335If5Slb0y0WOBTW45-86" value="&lt;h4 style=&quot;&quot; data-end=&quot;218&quot; data-start=&quot;194&quot;&gt;&lt;span style=&quot;background-color: transparent; color: light-dark(rgb(0, 0, 0), rgb(255, 255, 255));&quot; data-end=&quot;245&quot; data-start=&quot;221&quot;&gt;&lt;span style=&quot;&quot; data-end=&quot;243&quot; data-start=&quot;223&quot;&gt;&lt;u style=&quot;&quot;&gt;CodCliente_C&lt;/u&gt;&lt;/span&gt;&lt;/span&gt;&lt;/h4&gt;&lt;h4 style=&quot;&quot; data-end=&quot;218&quot; data-start=&quot;194&quot;&gt;&lt;span style=&quot;font-weight: 400;&quot;&gt;IdTIipoCliente_C&lt;/span&gt;&lt;/h4&gt;&lt;h4 style=&quot;&quot; data-end=&quot;218&quot; data-start=&quot;194&quot;&gt;&lt;span style=&quot;font-weight: 400;&quot;&gt;Nombre_C&lt;/span&gt;&lt;/h4&gt;&lt;h4 style=&quot;&quot; data-end=&quot;218&quot; data-start=&quot;194&quot;&gt;&lt;span style=&quot;font-weight: 400;&quot;&gt;Domicilio_C&lt;/span&gt;&lt;/h4&gt;&lt;h4 style=&quot;&quot; data-end=&quot;218&quot; data-start=&quot;194&quot;&gt;&lt;span style=&quot;font-weight: 400;&quot;&gt;Telefono_C&lt;/span&gt;&lt;/h4&gt;" style="text;html=1;align=left;verticalAlign=middle;resizable=0;points=[];autosize=1;strokeColor=none;fillColor=none;" vertex="1" parent="1">
          <mxGeometry x="-150" y="1155" width="110" height="180" as="geometry" />
        </mxCell>
        <mxCell id="f335If5Slb0y0WOBTW45-87" value="&lt;h4 style=&quot;&quot; data-end=&quot;218&quot; data-start=&quot;194&quot;&gt;&lt;u&gt;IdTIpoCliente_TC&lt;/u&gt;&lt;/h4&gt;&lt;h4 style=&quot;&quot; data-end=&quot;218&quot; data-start=&quot;194&quot;&gt;&lt;span style=&quot;font-weight: 400;&quot;&gt;Descripcion_TC&lt;/span&gt;&lt;/h4&gt;" style="text;html=1;align=left;verticalAlign=middle;resizable=0;points=[];autosize=1;strokeColor=none;fillColor=none;" vertex="1" parent="1">
          <mxGeometry y="1160" width="120" height="90" as="geometry" />
        </mxCell>
        <mxCell id="f335If5Slb0y0WOBTW45-88" value="&lt;h4 style=&quot;&quot; data-end=&quot;218&quot; data-start=&quot;194&quot;&gt;&lt;span style=&quot;background-color: transparent; color: light-dark(rgb(0, 0, 0), rgb(255, 255, 255));&quot; data-end=&quot;245&quot; data-start=&quot;221&quot;&gt;&lt;span style=&quot;&quot; data-end=&quot;243&quot; data-start=&quot;223&quot;&gt;&lt;u style=&quot;&quot;&gt;CodPedido_PD&lt;/u&gt;&lt;/span&gt;&lt;/span&gt;&lt;/h4&gt;&lt;h4 style=&quot;&quot; data-end=&quot;218&quot; data-start=&quot;194&quot;&gt;&lt;span style=&quot;font-weight: 400;&quot;&gt;CodProveedor_PD&lt;/span&gt;&lt;/h4&gt;&lt;div&gt;Fecha_PD&lt;/div&gt;" style="text;html=1;align=left;verticalAlign=middle;resizable=0;points=[];autosize=1;strokeColor=none;fillColor=none;" vertex="1" parent="1">
          <mxGeometry x="140" y="1155" width="120" height="100" as="geometry" />
        </mxCell>
        <mxCell id="f335If5Slb0y0WOBTW45-89" value="&lt;h4 style=&quot;&quot; data-end=&quot;218&quot; data-start=&quot;194&quot;&gt;&lt;span style=&quot;background-color: transparent; color: light-dark(rgb(0, 0, 0), rgb(255, 255, 255));&quot; data-end=&quot;245&quot; data-start=&quot;221&quot;&gt;&lt;span style=&quot;&quot; data-end=&quot;243&quot; data-start=&quot;223&quot;&gt;&lt;u style=&quot;&quot;&gt;CodPedido_DP&lt;/u&gt;&lt;/span&gt;&lt;/span&gt;&lt;/h4&gt;&lt;h4 style=&quot;&quot; data-end=&quot;218&quot; data-start=&quot;194&quot;&gt;&lt;u&gt;CodMateriaPrima_DP&lt;/u&gt;&lt;/h4&gt;&lt;div&gt;Cantidad_DP&lt;/div&gt;&lt;div&gt;&lt;br&gt;&lt;/div&gt;&lt;div&gt;PrecioUnitario_DP&lt;/div&gt;" style="text;html=1;align=left;verticalAlign=middle;resizable=0;points=[];autosize=1;strokeColor=none;fillColor=none;" vertex="1" parent="1">
          <mxGeometry x="315" y="1155" width="150" height="130" as="geometry" />
        </mxCell>
        <mxCell id="f335If5Slb0y0WOBTW45-90" value="&lt;h4 style=&quot;&quot; data-end=&quot;218&quot; data-start=&quot;194&quot;&gt;&lt;p&gt;&lt;em&gt;&lt;b&gt;&lt;u&gt;&lt;span style=&quot;mso-ansi-language:ES-MX;font-style:normal;&lt;br/&gt;mso-bidi-font-style:italic&quot; lang=&quot;ES-MX&quot;&gt;CodVenta_V&lt;/span&gt;&lt;/u&gt;&lt;/b&gt;&lt;/em&gt;&lt;b&gt;&lt;u&gt;&lt;span lang=&quot;ES-MX&quot;&gt;&lt;/span&gt;&lt;/u&gt;&lt;/b&gt;&lt;/p&gt;&lt;p&gt;&lt;span lang=&quot;ES-MX&quot;&gt;&lt;span style=&quot;font-weight: normal;&quot;&gt;Fecha_V&lt;/span&gt;&lt;/span&gt;&lt;/p&gt;&lt;p&gt;&lt;span style=&quot;font-weight: normal;&quot;&gt;&lt;em&gt;&lt;span style=&quot;mso-ansi-language:ES-MX;mso-bidi-font-weight:&lt;br/&gt;bold;font-style:normal;mso-bidi-font-style:italic&quot; lang=&quot;ES-MX&quot;&gt;CodCliente&lt;/span&gt;&lt;/em&gt;&lt;span lang=&quot;ES-MX&quot;&gt;_V&lt;/span&gt;&lt;/span&gt;&lt;/p&gt;&lt;p&gt;&lt;span lang=&quot;ES-MX&quot;&gt;&lt;span style=&quot;font-weight: normal;&quot;&gt;Total_V&lt;/span&gt;&lt;/span&gt;&lt;/p&gt;&lt;/h4&gt;" style="text;html=1;align=left;verticalAlign=middle;resizable=0;points=[];autosize=1;strokeColor=none;fillColor=none;" vertex="1" parent="1">
          <mxGeometry x="500" y="1155" width="100" height="140" as="geometry" />
        </mxCell>
        <mxCell id="f335If5Slb0y0WOBTW45-91" value="&lt;h4 style=&quot;&quot; data-end=&quot;218&quot; data-start=&quot;194&quot;&gt;&lt;p&gt;&lt;u&gt;&lt;span style=&quot;&quot; lang=&quot;ES-MX&quot;&gt;CodVenta&lt;/span&gt;&lt;span style=&quot;&quot; lang=&quot;ES-MX&quot;&gt;_DV&lt;/span&gt;&lt;/u&gt;&lt;/p&gt;&lt;p&gt;&lt;u&gt;&lt;span style=&quot;&quot; lang=&quot;ES-MX&quot;&gt;CodProducto&lt;/span&gt;&lt;span style=&quot;&quot; lang=&quot;ES-MX&quot;&gt;_DV&lt;/span&gt;&lt;/u&gt;&lt;/p&gt;&lt;p&gt;&lt;span style=&quot;font-weight: normal;&quot; lang=&quot;ES-MX&quot;&gt;Cantidad_DV&lt;/span&gt;&lt;/p&gt;&lt;p&gt;&lt;span style=&quot;background-color: transparent; color: light-dark(rgb(0, 0, 0), rgb(255, 255, 255)); font-weight: normal;&quot;&gt;PrecioUnitario_DV&lt;/span&gt;&lt;/p&gt;&lt;/h4&gt;" style="text;html=1;align=left;verticalAlign=middle;resizable=0;points=[];autosize=1;strokeColor=none;fillColor=none;" vertex="1" parent="1">
          <mxGeometry x="660" y="1160" width="120" height="140" as="geometry" />
        </mxCell>
      </root>
    </mxGraphModel>
  </diagram>
</mxfile>
